<svg
  xmlns="http://www.w3.org/2000/svg"
  preserveAspectRatio="xMinYMid"
  viewBox="0.02 0 231 30"
>
  <path
    d="M99.61 19.52H114.85L106.8 6.52 92 30H85.27L103.27 1.83A4.29 4.29 0 0 1 110.27 1.78L128.32 30H121.59L118.42 24.75H103L99.64 19.52M169.57 24.75V.28H163.85V27.16A2.76 2.76 0 0 0 164.7 29.16 2.9 2.9 0 0 0 166.78 30.03H192.78L196.17 24.78H169.54M75 20.38A10 10 0 0 0 75 .28H50V30H55.71V5.54H74.65A4.81 4.81 0 0 1 74.65 15.16H58.54L75.6 30H83.89L72.43 20.38zM14.88 30H32.15A14.86 14.86 0 0 0 32.15.29H14.88A14.86 14.86 0 1 0 14.88 30M31.76 24.77H15.26A9.62 9.62 0 0 1 15.26 5.54H31.76A9.62 9.62 0 1 1 31.76 24.77M140.25 30H157.88L161.22 24.77H140.64A9.62 9.62 0 1 1 140.64 5.54H157.39L160.77.29H140.25A14.86 14.86 0 1 0 140.25 30M210.12 24.77A9.62 9.62 0 0 1 200.86 17.77H225.28L228.64 12.53H200.86A9.61 9.61 0 0 1 210.12 5.53H226.88L230.23.28H209.73A14.86 14.86 0 0 0 209.73 29.99H227.36L230.71 24.76H210.11"
    style="fill: #c74634"
  />
</svg>
