<svg xmlns="http://www.w3.org/2000/svg" opacity=".15">
  <defs>
    <linearGradient
      id="a"
      x1="0"
      x2="0"
      y1="0"
      y2="100%"
      gradientTransform="rotate(324 450 450)"
      gradientUnits="userSpaceOnUse"
    >
      <stop offset="0" stop-color="#fff" />
      <stop offset="1" stop-color="#857A9C" />
    </linearGradient>
    <pattern
      id="b"
      width="540"
      height="450"
      x="0"
      y="0"
      patternUnits="userSpaceOnUse"
      viewBox="0 0 1080 900"
    >
      <g fill-opacity=".1">
        <path fill="#444" d="M90 150 0 300H180z" />
        <path d="M90 150 180 0H0z" />
        <path fill="#AAA" d="M270 150 360 0H180z" />
        <path fill="#DDD" d="M450 150 360 300H540z" />
        <path fill="#999" d="M450 150 540 0H360z" />
        <path d="M630 150 540 300H720z" />
        <path fill="#DDD" d="M630 150 720 0H540z" />
        <path fill="#444" d="M810 150 720 300H900z" />
        <path fill="#FFF" d="M810 150 900 0H720z" />
        <path fill="#DDD" d="M990 150 900 300H1080z" />
        <path fill="#444" d="M990 150 1080 0H900z" />
        <path fill="#DDD" d="M90 450 0 600H180z" />
        <path d="M90 450 180 300H0z" />
        <path fill="#666" d="M270 450 180 600H360z" />
        <path fill="#AAA" d="M270 450 360 300H180z" />
        <path fill="#DDD" d="M450 450 360 600H540z" />
        <path fill="#999" d="M450 450 540 300H360zM630 450 540 600H720z" />
        <path fill="#FFF" d="M630 450 720 300H540z" />
        <path d="M810 450 720 600H900z" />
        <path fill="#DDD" d="M810 450 900 300H720z" />
        <path fill="#AAA" d="M990 450 900 600H1080z" />
        <path fill="#444" d="M990 450 1080 300H900z" />
        <path fill="#222" d="M90 750 0 900H180z" />
        <path d="M270 750 180 900H360z" />
        <path fill="#DDD" d="M270 750 360 600H180z" />
        <path d="M450 750 540 600H360zM630 750 540 900H720z" />
        <path fill="#444" d="M630 750 720 600H540z" />
        <path fill="#AAA" d="M810 750 720 900H900z" />
        <path fill="#666" d="M810 750 900 600H720z" />
        <path fill="#999" d="M990 750 900 900H1080zM180 0 90 150H270z" />
        <path fill="#444" d="M360 0 270 150H450z" />
        <path fill="#FFF" d="M540 0 450 150H630z" />
        <path d="M900 0 810 150H990z" />
        <path fill="#222" d="M0 300-90 450H90z" />
        <path fill="#FFF" d="M0 300 90 150H-90zM180 300 90 450H270z" />
        <path fill="#666" d="M180 300 270 150H90z" />
        <path fill="#222" d="M360 300 270 450H450z" />
        <path fill="#FFF" d="M360 300 450 150H270z" />
        <path fill="#444" d="M540 300 450 450H630z" />
        <path fill="#222" d="M540 300 630 150H450z" />
        <path fill="#AAA" d="M720 300 630 450H810z" />
        <path fill="#666" d="M720 300 810 150H630z" />
        <path fill="#FFF" d="M900 300 810 450H990z" />
        <path fill="#999" d="M900 300 990 150H810z" />
        <path d="M0 600-90 750H90z" />
        <path fill="#666" d="M0 600 90 450H-90z" />
        <path fill="#AAA" d="M180 600 90 750H270z" />
        <path fill="#444" d="M180 600 270 450H90zM360 600 270 750H450z" />
        <path fill="#999" d="M360 600 450 450H270z" />
        <path fill="#666" d="M540 600 630 450H450z" />
        <path fill="#222" d="M720 600 630 750H810z" />
        <path fill="#FFF" d="M900 600 810 750H990z" />
        <path fill="#222" d="M900 600 990 450H810z" />
        <path fill="#DDD" d="M0 900 90 750H-90z" />
        <path fill="#444" d="M180 900 270 750H90z" />
        <path fill="#FFF" d="M360 900 450 750H270z" />
        <path fill="#AAA" d="M540 900 630 750H450z" />
        <path fill="#FFF" d="M720 900 810 750H630z" />
        <path fill="#222" d="M900 900 990 750H810zM1080 300 990 450H1170z" />
        <path fill="#FFF" d="M1080 300 1170 150H990z" />
        <path d="M1080 600 990 750H1170z" />
        <path fill="#666" d="M1080 600 1170 450H990z" />
        <path fill="#DDD" d="M1080 900 1170 750H990z" />
      </g>
    </pattern>
  </defs>
  <rect width="100%" height="100%" fill="url(#a)" />
  <rect width="100%" height="100%" fill="url(#b)" />
</svg>
